<svg xmlns="http://www.w3.org/2000/svg" xmlns:xlink="http://www.w3.org/1999/xlink" width="8" height="12" viewBox="0 0 8 12">
  <defs>
    <clipPath id="clip-path">
      <rect id="crop" width="8" height="12" transform="translate(0.688)" fill="none"/>
    </clipPath>
    <clipPath id="clip-path-2">
      <rect id="Прямоугольник_1" data-name="Прямоугольник 1" width="7.995" height="16.4" transform="translate(0.688 -2.2)" fill="none"/>
    </clipPath>
  </defs>
  <g id="map_копия" data-name="map копия" transform="translate(-1289 -3810)" opacity="0.702">
    <g id="map_копия-2" data-name="map копия" transform="translate(1288.313 3810)" clip-path="url(#clip-path)">
      <g id="Сгруппировать_3" data-name="Сгруппировать 3">
        <g id="Сгруппировать_2" data-name="Сгруппировать 2">
          <g id="Сгруппировать_1" data-name="Сгруппировать 1" clip-path="url(#clip-path-2)">
            <path id="Контур_1" data-name="Контур 1" d="M4.688-2.2c-2.209,0-4,2.292-4,5.12a6.3,6.3,0,0,0,.392,2.212c.014.038,3.608,9.052,3.608,9.052l3.565-8.94A6.279,6.279,0,0,0,8.688,2.92c0-2.828-1.791-5.12-4-5.12Zm0,8.192c-1.325,0-2.4-1.376-2.4-3.072S3.362-.152,4.688-.152s2.4,1.376,2.4,3.072-1.075,3.072-2.4,3.072Zm0,0"/>
          </g>
        </g>
      </g>
    </g>
    <path id="Color_Overlay" data-name="Color Overlay" d="M1292.129,3822c-1.065-2.67-2.727-6.842-2.737-6.868a6.3,6.3,0,0,1-.392-2.212,6.12,6.12,0,0,1,.715-2.92h2.538a3.1,3.1,0,0,0-1.652,2.92c0,1.7,1.074,3.073,2.4,3.073s2.4-1.375,2.4-3.073a3.1,3.1,0,0,0-1.654-2.92h2.539a6.065,6.065,0,0,1,.709,2.651v.536a6.235,6.235,0,0,1-.43,2.056L1293.87,3822Z" fill="#fff"/>
  </g>
</svg>
